<svg xmlns="http://www.w3.org/2000/svg" xmlns:xlink="http://www.w3.org/1999/xlink" version="1.1" width="237" height="134"><g fill="none" fill-rule="nonzero" stroke="#000000" stroke-width="1" stroke-linecap="butt" stroke-linejoin="miter" stroke-miterlimit="10" stroke-dasharray="" stroke-dashoffset="0" font-family="none" font-weight="none" font-size="none" text-anchor="none" style="mix-blend-mode: normal" transform="scale(1)"><g><g id="text"><g id="text-line-0"><path d="M22,33.8v66.2M22,33.8h22.1l9.5,3.2l6.2,6.3l3.2,6.3l3.2,9.4v15.8l-3.2,9.4l-3.2,6.35l-6.2,6.3l-9.5,3.15h-22.1"></path><path d="M78.8,33.8l25.2,66.2M129.2,33.8l-25.2,66.2"></path><path d="M144.9,33.8v66.2"></path><path d="M214.3,49.6l-3.2,-6.3l-6.3,-6.3l-6.3,-3.2h-12.6l-6.3,3.2l-6.3,6.3l-3.2,6.3l-3.1,9.4v15.8l3.1,9.4l3.2,6.35l6.3,6.3l6.3,3.15h12.6l6.3,-3.15l6.3,-6.3l3.2,-6.35"></path></g></g></g></g></svg>
